<?xml version="1.0" encoding="UTF-8" standalone="no"?>
<svg width="153px" height="127px" viewBox="0 0 153 127" version="1.1" xmlns="http://www.w3.org/2000/svg" xmlns:xlink="http://www.w3.org/1999/xlink">
    <!-- Generator: Sketch 3.8.3 (29802) - http://www.bohemiancoding.com/sketch -->
    <title>logo</title>
    <desc>Created with Sketch.</desc>
    <defs></defs>
    <g id="Logo" stroke="none" stroke-width="1" fill="none" fill-rule="evenodd">
        <path d="M67.6463657,91.8762911 L15.0312219,91.8762911 C15.0232663,93.8106465 13.4483998,95.3762911 11.515625,95.3762911 C9.57399893,95.3762911 8,93.7975273 8,91.8615707 L8,84.8910115 C8,82.9498851 9.57794975,81.3762911 11.515625,81.3762911 C13.4523276,81.3762911 15.0232651,82.9470584 15.0312197,84.8762911 L67.6463657,84.8762911 L94.5989583,81.3450411 L94.5989583,81.5557035 C94.9360803,81.4394298 95.2978805,81.3762911 95.6743277,81.3762911 L154.700672,81.3762911 C156.522841,81.3762911 158,82.8480757 158,84.6763676 L158,92.0762146 C158,93.8987966 156.521712,95.3762911 154.700672,95.3762911 L95.6743277,95.3762911 C95.2978112,95.3762911 94.9360253,95.3134513 94.5989583,95.1976109 L94.5989583,95.4075411 L67.6463657,91.8762911 Z" id="Bat-2" fill="#000000" transform="translate(83.000000, 88.376291) rotate(-25.000000) translate(-83.000000, -88.376291) "></path>
        <path d="M54.6463657,92.8762911 L2.03122191,92.8762911 C2.02326635,94.8106465 0.448399823,96.3762911 -1.484375,96.3762911 C-3.42600107,96.3762911 -5,94.7975273 -5,92.8615707 L-5,85.8910115 C-5,83.9498851 -3.42205025,82.3762911 -1.484375,82.3762911 C0.452327591,82.3762911 2.02326509,83.9470584 2.03121966,85.8762911 L54.6463657,85.8762911 L81.5989583,82.3450411 L81.5989583,82.5557035 C81.9360803,82.4394298 82.2978805,82.3762911 82.6743277,82.3762911 L141.700672,82.3762911 C143.522841,82.3762911 145,83.8480757 145,85.6763676 L145,93.0762146 C145,94.8987966 143.521712,96.3762911 141.700672,96.3762911 L82.6743277,96.3762911 C82.2978112,96.3762911 81.9360253,96.3134513 81.5989583,96.1976109 L81.5989583,96.4075411 L54.6463657,92.8762911 Z" id="Bat-1" fill="#000000" transform="translate(70.000000, 89.376291) rotate(-155.000000) translate(-70.000000, -89.376291) "></path>
        <polygon id="Home-Plate" stroke="#4A4A4A" stroke-width="2" fill="#FFFFFF" points="35 1 115.999999 1 116 41.1881452 75.7115723 81.3762911 35 41.1881452"></polygon>
    </g>
</svg>